<svg width="713" height="637" viewBox="0 0 713 637" fill="none" xmlns="http://www.w3.org/2000/svg">
<g clip-path="url(#clip0_636_61920)">
<path d="M621.598 13.2191C659.068 51.0591 679.818 159.189 681.988 211.329C682.588 225.719 679.928 246.009 682.008 259.309C682.938 265.249 691.468 281.779 693.988 289.329C719.598 366.299 723.458 468.229 669.928 534.339C571.868 655.449 343.118 657.409 211.278 598.039C153.058 571.819 96.5478 526.169 77.9478 462.859C60.7378 468.179 44.6278 476.599 29.0078 485.429C16.1778 486.919 34.0178 471.789 37.6278 469.039C48.3978 460.819 61.1078 455.119 73.5478 449.899L70.8178 421.509C70.4778 420.209 69.5978 420.079 68.4578 419.869C62.3978 418.749 44.3878 419.449 37.4178 419.829C25.4078 420.479 13.4478 423.459 1.61783 424.759C-3.75217 423.109 5.92783 417.429 7.97783 416.389C26.7578 406.909 50.3878 406.349 70.9478 406.859C69.8578 399.899 75.8278 384.979 75.0078 379.389C74.6278 376.799 67.9478 374.259 65.3178 373.009C49.8178 365.589 32.8478 361.219 16.0678 357.769C15.7178 354.789 15.2178 354.259 17.9078 353.359C27.4178 350.179 43.1978 353.079 52.9678 355.359C62.1778 357.519 70.7778 362.079 79.8678 363.769C82.8878 351.449 90.3278 340.769 94.7078 329.109C98.6378 318.639 101.098 307.079 104.948 296.349C116.348 264.529 133.188 234.859 153.758 208.149C148.258 154.069 143.698 92.2491 162.948 40.3491C175.908 5.32905 193.348 -2.46094 229.938 7.37906C279.368 20.6691 325.858 61.7291 360.628 97.6791C387.818 96.6791 415.418 95.3791 442.358 99.8991C466.878 71.1091 496.628 43.3791 529.028 23.4591C556.168 6.76905 594.548 -14.0909 621.598 13.2191ZM612.948 37.8691C603.338 24.2191 599.588 18.0891 581.168 22.5891C536.718 33.4391 476.958 88.8191 448.988 124.409C445.928 128.309 432.188 148.939 430.498 149.919C426.188 152.439 424.658 148.619 422.598 149.009C421.738 149.169 417.468 153.729 416.438 154.849C398.938 173.879 391.588 199.879 372.948 218.359C345.508 245.559 288.738 266.149 254.048 242.269C223.688 221.379 232.988 181.109 250.468 154.879C191.758 186.989 147.258 240.289 124.938 303.339C121.008 314.429 118.708 326.219 114.698 337.099C110.558 348.339 101.458 361.539 99.3478 372.839C98.0378 379.839 111.258 379.099 110.998 388.329C110.898 391.969 108.158 394.769 104.448 394.789C101.628 394.789 96.3378 388.889 94.9678 389.859C93.6778 396.199 92.4078 402.709 93.0878 409.229C94.1278 412.269 105.038 409.299 105.068 418.359C105.098 428.219 93.6578 423.159 92.9578 423.859C92.5678 430.629 93.2878 437.329 94.9678 443.869C111.278 437.259 116.268 455.909 98.9478 455.859C101.978 472.799 111.878 490.359 122.118 504.199C147.998 539.149 186.358 563.979 225.948 580.869C336.248 627.899 500.538 629.989 603.868 564.289C675.638 518.649 696.438 452.249 688.948 369.379C686.408 341.289 679.418 313.289 669.938 286.879C668.648 285.919 663.668 293.699 658.388 287.949C654.038 283.219 659.068 271.599 659.828 265.249C667.218 204.049 648.828 88.7991 612.948 37.8691ZM236.948 32.8691C225.888 28.5191 202.428 19.0291 192.408 28.8291C177.548 43.3791 170.768 101.499 169.898 122.319C169.708 143.889 170.118 165.479 172.948 186.859C173.558 187.479 184.638 175.959 184.918 174.329C181.098 141.649 178.638 108.159 185.228 75.6491C186.948 67.1891 191.238 48.0491 201.408 46.8291C228.578 43.5691 258.468 82.4991 271.358 102.929C272.948 105.449 278.128 116.489 279.938 116.849L333.938 101.349C306.298 73.1991 273.988 47.4091 236.938 32.8491L236.948 32.8691ZM198.948 162.869L240.648 136.079L264.868 123.279C254.678 102.319 234.968 73.8091 213.148 64.1691C210.948 63.1991 206.168 60.1891 204.668 63.1291C196.358 79.3591 197.528 105.499 195.898 123.419L198.948 162.869ZM335.948 123.869C316.858 126.609 298.808 131.669 283.938 144.359C264.328 161.089 238.108 197.079 257.948 221.869C280.418 249.939 332.578 230.269 355.418 210.839C377.848 191.769 385.758 162.829 405.918 141.339C412.468 134.359 422.348 128.569 425.938 118.869C400.258 117.369 373.068 116.649 347.608 121.029C343.228 121.779 340.168 122.169 335.938 123.859L335.948 123.869Z" fill="#2D1D48"/>
<path d="M612.947 37.8707C617.217 55.1407 622.427 72.1107 625.657 89.6607C635.287 142.031 637.447 209.471 623.667 261.081C622.017 267.251 614.047 285.841 613.887 289.381C613.707 293.411 618.537 306.281 619.637 311.681C631.437 369.311 619.457 431.121 587.977 480.391C581.097 491.161 572.677 500.751 564.957 510.871C548.937 497.321 516.907 487.991 496.287 485.041C489.977 484.141 470.337 481.031 465.957 484.381C463.217 486.481 462.357 491.021 464.497 493.821C467.007 497.101 492.197 498.111 498.297 499.021C520.627 502.331 537.297 508.421 557.937 515.881C546.697 527.851 533.157 537.271 519.937 546.881C508.337 535.591 483.357 519.751 468.197 514.121C458.617 510.561 451.107 512.311 456.187 523.641C474.747 531.421 491.617 541.231 507.937 552.891C438.357 592.521 352.047 599.721 273.577 588.751C259.147 586.731 244.697 583.751 230.407 580.901C229.177 580.651 226.617 579.321 225.937 580.901C186.347 564.021 147.987 539.191 122.107 504.231C111.867 490.391 101.967 472.841 98.9374 455.891C116.257 455.941 111.267 437.291 94.9574 443.901C93.2774 437.361 92.5573 430.661 92.9473 423.891C93.6473 423.191 105.077 428.251 105.057 418.391C105.027 409.341 94.1174 412.311 93.0774 409.261C92.3974 402.741 93.6674 396.241 94.9574 389.891C96.3274 388.921 101.607 394.831 104.437 394.821C108.147 394.811 110.887 392.001 110.987 388.361C111.247 379.131 98.0273 379.871 99.3373 372.871C101.447 361.571 110.547 348.361 114.687 337.131C118.697 326.241 120.997 314.451 124.927 303.371C147.247 240.321 191.747 187.021 250.457 154.911C232.977 181.141 223.667 221.401 254.037 242.301C288.727 266.171 345.497 245.591 372.937 218.391C391.577 199.911 398.927 173.911 416.427 154.881C417.457 153.761 421.727 149.211 422.587 149.041C424.647 148.651 426.177 152.471 430.487 149.951C432.177 148.961 445.917 128.331 448.977 124.441C476.937 88.8507 536.707 33.4607 581.157 22.6207C599.577 18.1207 603.327 24.2607 612.937 37.9007L612.947 37.8707ZM576.697 49.1307C542.897 53.4207 488.007 108.471 472.427 137.851C459.997 161.281 472.847 157.571 490.917 165.401C532.657 183.501 570.087 211.661 596.007 249.311C609.907 257.931 612.717 231.311 614.637 222.061C623.317 180.211 623.607 127.001 610.207 86.1107C605.317 71.1707 595.677 46.7307 576.697 49.1407V49.1307ZM150.687 312.111C140.657 313.681 124.527 325.391 121.877 335.371C117.817 350.631 137.057 339.421 143.407 338.831C166.067 336.721 178.747 348.331 190.367 365.951C192.637 369.391 194.347 376.781 199.447 376.791C207.747 376.811 204.387 362.181 203.297 357.021C198.057 332.261 178.667 307.731 150.687 312.111ZM385.747 342.161C363.877 342.901 339.347 355.081 324.917 371.351C321.457 375.261 305.267 395.751 316.697 397.711C320.917 398.431 331.647 389.311 336.277 386.701C365.877 370.011 399.717 367.431 429.967 384.351C435.947 387.701 447.847 400.351 452.727 391.151C457.517 382.121 441.287 363.481 434.417 357.901C421.487 347.401 402.377 341.601 385.747 342.161ZM226.107 447.041C226.437 446.541 235.327 443.731 237.267 442.701C265.007 428.011 257.737 407.311 228.977 401.341C203.917 396.141 184.007 406.381 200.117 433.201C202.117 436.521 210.247 443.971 210.727 445.581C211.677 448.751 210.037 462.951 207.957 465.401C197.597 477.581 174.517 475.381 171.177 458.151C170.237 453.301 172.417 445.771 165.347 444.911C152.187 443.311 157.007 463.291 160.767 470.561C171.807 491.891 199.257 491.821 216.367 477.901C234.257 505.771 283.097 518.171 305.347 488.801C308.937 484.061 317.047 470.131 307.977 467.321C299.327 464.651 298.957 473.761 295.377 478.821C285.617 492.621 265.207 493.511 250.677 487.641C243.237 484.641 228.057 473.421 225.477 465.841C224.547 463.101 224.777 449.031 226.097 447.051L226.107 447.041ZM467.257 454.181C462.897 458.891 466.187 466.111 472.347 465.841C477.787 465.601 491.937 459.851 498.937 458.361C518.387 454.231 537.587 453.201 557.487 453.831C559.987 453.911 567.007 456.811 566.987 452.361C566.967 449.181 554.907 445.851 552.157 445.171C531.347 440.001 510.657 441.661 489.937 446.371C485.367 447.411 469.927 451.311 467.257 454.191V454.181Z" fill="#FDFDFD"/>
<path d="M612.953 37.8691C648.823 88.7891 667.213 204.039 659.833 265.249C659.063 271.599 654.043 283.219 658.393 287.949C663.673 293.699 668.653 285.909 669.943 286.879C679.423 313.289 686.413 341.299 688.953 369.379C696.443 452.249 675.643 518.649 603.873 564.289C500.553 629.999 336.263 627.909 225.953 580.869C226.633 579.299 229.193 580.629 230.423 580.869C244.713 583.719 259.153 586.699 273.593 588.719C352.063 599.699 438.373 592.499 507.953 552.859C515.523 558.259 524.613 567.129 531.913 571.399C534.413 572.859 537.433 574.029 536.793 569.599C536.283 566.099 523.133 549.959 519.953 546.869C533.173 537.259 546.713 527.839 557.953 515.869C560.163 516.669 570.933 520.919 569.943 516.389C568.033 515.129 566.403 512.099 564.953 510.869C572.673 500.749 581.093 491.159 587.973 480.389C619.463 431.129 631.433 369.309 619.633 311.679C618.523 306.279 613.703 293.409 613.883 289.379C614.043 285.839 622.023 267.249 623.663 261.079C637.443 209.469 635.283 142.029 625.653 89.6591C622.423 72.1091 617.213 55.1291 612.943 37.8691H612.953Z" fill="#CBC3D7"/>
<path d="M335.95 123.87C340.18 122.18 343.23 121.79 347.62 121.04C373.08 116.66 400.27 117.38 425.95 118.88C422.36 128.58 412.48 134.36 405.93 141.35C385.77 162.84 377.86 191.78 355.43 210.85C332.59 230.28 280.43 249.95 257.96 221.88C256.53 204.88 261.35 190.72 270.15 176.57C284.99 152.7 310.43 134.09 335.96 123.88L335.95 123.87Z" fill="#EDBA55"/>
<path d="M236.948 32.8694C236.918 35.0194 238.208 35.5894 239.608 36.7094C251.918 46.5994 265.988 58.0194 276.468 69.8494C280.128 73.9894 292.828 89.8494 293.028 94.3794C293.368 101.999 281.958 109.879 279.958 116.859C278.148 116.489 272.968 105.459 271.378 102.939C258.488 82.5094 228.608 43.5794 201.428 46.8394C191.258 48.0594 186.968 67.1994 185.248 75.6594C178.658 108.159 181.118 141.659 184.938 174.339C184.658 175.969 173.578 187.489 172.968 186.869C170.138 165.489 169.718 143.899 169.918 122.329C170.788 101.499 177.558 43.3794 192.428 28.8394C202.438 19.0394 225.898 28.5294 236.968 32.8794L236.948 32.8694Z" fill="#FDFDFD"/>
<path d="M198.948 162.869L195.898 123.419C197.528 105.489 196.358 79.3594 204.668 63.1294C206.168 60.1994 210.948 63.1994 213.148 64.1694C234.968 73.8094 254.678 102.319 264.868 123.279L240.648 136.079L198.948 162.869Z" fill="#F0969E"/>
<path d="M236.948 32.8691C273.998 47.4291 306.298 73.2291 333.948 101.369L279.948 116.869C281.958 109.889 293.358 102.009 293.018 94.3891C292.818 89.8591 280.118 73.9891 276.458 69.8591C265.978 58.0191 251.908 46.6091 239.598 36.7191C238.198 35.5991 236.908 35.0191 236.938 32.8791L236.948 32.8691Z" fill="#CBC3D7"/>
<path d="M335.95 123.869C310.42 134.079 284.98 152.689 270.14 176.559C261.34 190.709 256.52 204.869 257.95 221.869C238.11 197.079 264.33 161.089 283.94 144.359C298.81 131.669 316.86 126.609 335.95 123.869Z" fill="#FDFDFD"/>
<path d="M576.699 49.1305C595.679 46.7205 605.319 71.1605 610.209 86.1005C623.599 126.991 623.319 180.201 614.639 222.051C612.719 231.301 609.909 257.921 596.009 249.301C570.099 211.651 532.659 183.491 490.919 165.391C472.849 157.551 459.999 161.271 472.429 137.841C488.019 108.461 542.899 53.4105 576.699 49.1205V49.1305ZM597.929 225.871C606.819 186.581 608.199 143.491 599.259 104.051C597.339 95.5905 595.019 86.8105 591.409 78.9005C585.619 66.2405 584.059 62.1105 569.959 67.3805C561.859 70.4105 551.789 77.0405 544.629 82.0505C520.849 98.6805 499.269 121.601 484.949 146.851C529.319 162.011 567.159 191.051 597.939 225.861L597.929 225.871Z" fill="#2D1D48"/>
<path d="M385.747 342.16C402.367 341.6 421.477 347.41 434.417 357.9C441.287 363.48 457.517 382.12 452.727 391.15C447.847 400.35 435.947 387.7 429.967 384.35C399.707 367.42 365.877 370 336.277 386.7C331.657 389.31 320.917 398.43 316.697 397.71C305.267 395.75 321.457 375.25 324.917 371.35C339.347 355.08 363.877 342.9 385.747 342.16Z" fill="#2D1D48"/>
<path d="M150.69 312.111C178.66 307.731 198.06 332.261 203.3 357.021C204.39 362.181 207.74 376.811 199.45 376.791C194.35 376.781 192.64 369.391 190.37 365.951C178.75 348.331 166.06 336.721 143.41 338.831C137.06 339.421 117.81 350.631 121.88 335.371C124.54 325.391 140.66 313.681 150.69 312.111Z" fill="#2D1D48"/>
<path d="M564.953 510.869C566.403 512.099 568.043 515.129 569.943 516.389C570.933 520.919 560.153 516.669 557.953 515.869C537.313 508.409 520.643 502.319 498.313 499.009C492.213 498.109 467.023 497.089 464.513 493.809C462.363 491.009 463.223 486.469 465.973 484.369C470.353 481.019 489.993 484.129 496.303 485.029C516.913 487.979 548.943 497.309 564.973 510.859L564.953 510.869Z" fill="#2D1D48"/>
<path d="M467.26 454.18C469.92 451.3 485.37 447.4 489.94 446.36C510.66 441.65 531.34 439.99 552.16 445.16C554.91 445.84 566.97 449.16 566.99 452.35C567.02 456.8 560 453.9 557.49 453.82C537.59 453.19 518.39 454.22 498.94 458.35C491.94 459.84 477.79 465.59 472.35 465.83C466.18 466.1 462.9 458.88 467.26 454.17V454.18Z" fill="#2D1D48"/>
<path d="M519.949 546.87C523.119 549.96 536.279 566.1 536.789 569.6C537.439 574.04 534.409 572.87 531.909 571.4C524.609 567.13 515.509 558.26 507.949 552.86C491.629 541.21 474.759 531.39 456.199 523.61C451.119 512.28 458.629 510.54 468.209 514.09C483.369 519.72 508.349 535.56 519.949 546.85V546.87Z" fill="#2D1D48"/>
<path d="M597.927 225.87C567.147 191.05 529.307 162.02 484.938 146.86C499.257 121.6 520.847 98.6898 544.617 82.0598C551.777 77.0498 561.848 70.4198 569.948 67.3898C584.048 62.1198 585.608 66.2498 591.398 78.9098C595.018 86.8098 597.327 95.5998 599.247 104.06C608.187 143.5 606.807 186.59 597.917 225.88L597.927 225.87Z" fill="#F0969E"/>
<path d="M226.112 447.041C224.792 449.011 224.562 463.091 225.492 465.831C228.072 473.411 243.252 484.631 250.692 487.631C265.222 493.501 285.632 492.611 295.392 478.811C298.972 473.751 299.352 464.641 307.992 467.311C317.062 470.111 308.952 484.051 305.362 488.791C283.112 518.171 234.262 505.761 216.382 477.891C199.272 491.801 171.822 491.881 160.782 470.551C157.022 463.291 152.202 443.301 165.362 444.901C172.432 445.761 170.252 453.291 171.192 458.141C174.532 475.371 197.612 477.571 207.972 465.391C210.052 462.941 211.692 448.751 210.742 445.571C210.262 443.961 202.132 436.511 200.132 433.191C184.022 406.381 203.922 396.131 228.992 401.331C257.752 407.301 265.022 428.001 237.282 442.691C235.342 443.721 226.452 446.541 226.122 447.031L226.112 447.041ZM208.952 421.871C217.062 442.501 232.582 435.561 242.012 420.431C237.412 417.101 232.532 414.941 226.952 413.871C222.242 412.971 206.982 410.271 206.862 417.351C206.812 420.251 208.482 420.671 208.952 421.871Z" fill="#2D1D48"/>
<path d="M226.953 413.869C232.533 414.939 237.413 417.099 242.013 420.429C232.583 435.549 217.053 442.499 208.953 421.869C214.123 421.339 226.493 420.589 226.953 413.869Z" fill="#F0969E"/>
<path d="M226.95 413.869C226.49 420.589 214.12 421.339 208.95 421.869C208.48 420.679 206.82 420.249 206.86 417.349C206.98 410.269 222.24 412.959 226.95 413.869Z" fill="#FDFDFD"/>
</g>
<defs>
<clipPath id="clip0_636_61920">
<rect width="712.12" height="636.16" fill="white"/>
</clipPath>
</defs>
</svg>
